<svg xmlns="http://www.w3.org/2000/svg" xmlns:xlink="http://www.w3.org/1999/xlink" viewBox="0 0 1607.73 1338.04"><defs><style>.cls-1{isolation:isolate;}.cls-105,.cls-2,.cls-3,.cls-4,.cls-5,.cls-6,.cls-62,.cls-7,.cls-8,.cls-9{opacity:0.25;}.cls-2{fill:url(#linear-gradient);}.cls-3{fill:url(#linear-gradient-2);}.cls-4{fill:url(#linear-gradient-3);}.cls-5{fill:url(#linear-gradient-4);}.cls-6{fill:url(#linear-gradient-5);}.cls-7{fill:url(#linear-gradient-6);}.cls-8{fill:url(#linear-gradient-7);}.cls-9{fill:url(#linear-gradient-8);}.cls-10{fill:url(#linear-gradient-9);}.cls-11{fill:url(#linear-gradient-10);}.cls-12{fill:url(#linear-gradient-11);}.cls-13{fill:url(#linear-gradient-12);}.cls-14{fill:url(#linear-gradient-13);}.cls-15{fill:url(#linear-gradient-14);}.cls-16{fill:url(#linear-gradient-15);}.cls-17{fill:url(#linear-gradient-16);}.cls-18{fill:url(#linear-gradient-17);}.cls-19{fill:url(#linear-gradient-18);}.cls-20{fill:url(#linear-gradient-19);}.cls-21{fill:url(#Cool);}.cls-22{fill:url(#linear-gradient-20);}.cls-23{fill:url(#linear-gradient-21);}.cls-24{fill:url(#linear-gradient-22);}.cls-25{fill:url(#linear-gradient-23);}.cls-26{fill:url(#linear-gradient-24);}.cls-27{fill:url(#linear-gradient-25);}.cls-28{fill:url(#linear-gradient-26);}.cls-29{fill:url(#linear-gradient-27);}.cls-30{fill:url(#linear-gradient-28);}.cls-31{fill:url(#linear-gradient-29);}.cls-32{fill:url(#linear-gradient-30);}.cls-33{fill:url(#linear-gradient-31);}.cls-34{fill:url(#linear-gradient-32);}.cls-35{fill:url(#linear-gradient-33);}.cls-36{fill:#1d1d1b;}.cls-37{fill:url(#t);}.cls-38,.cls-78,.cls-97{opacity:0.7;}.cls-38,.cls-78{mix-blend-mode:multiply;}.cls-38{fill:url(#linear-gradient-34);}.cls-39{fill:url(#linear-gradient-35);}.cls-100,.cls-101,.cls-40,.cls-89,.cls-90,.cls-96,.cls-98,.cls-99{opacity:0.4;}.cls-41{fill:url(#t-2);}.cls-42{fill:url(#t-3);}.cls-43{fill:url(#t-4);}.cls-44{fill:url(#t-5);}.cls-45{fill:url(#t-6);}.cls-46{fill:url(#t-7);}.cls-47{fill:url(#t-8);}.cls-48{fill:url(#t-9);}.cls-49{fill:url(#t-10);}.cls-50{fill:url(#t-11);}.cls-51{fill:url(#linear-gradient-36);}.cls-52{fill:url(#linear-gradient-37);}.cls-53{fill:url(#linear-gradient-38);}.cls-54{fill:url(#t-12);}.cls-55{fill:url(#linear-gradient-39);}.cls-56{fill:url(#linear-gradient-40);}.cls-57{fill:url(#linear-gradient-41);}.cls-58{fill:url(#linear-gradient-42);}.cls-59{fill:url(#linear-gradient-43);}.cls-60{fill:url(#linear-gradient-44);}.cls-61{fill:url(#linear-gradient-45);}.cls-62{fill:url(#linear-gradient-46);}.cls-63{fill:url(#linear-gradient-47);}.cls-64{fill:url(#linear-gradient-48);}.cls-65{fill:url(#linear-gradient-49);}.cls-66{fill:url(#linear-gradient-50);}.cls-67{fill:url(#linear-gradient-51);}.cls-68{fill:url(#t-13);}.cls-69{fill:url(#t-14);}.cls-70{fill:url(#linear-gradient-52);}.cls-71{fill:url(#linear-gradient-53);}.cls-72{fill:url(#linear-gradient-54);}.cls-73{fill:url(#linear-gradient-55);}.cls-74{fill:url(#linear-gradient-56);}.cls-75{fill:url(#linear-gradient-57);}.cls-76{fill:url(#linear-gradient-58);}.cls-77{fill:url(#linear-gradient-59);}.cls-78{fill:url(#linear-gradient-60);}.cls-79{fill:url(#linear-gradient-61);}.cls-80{fill:url(#linear-gradient-62);}.cls-81{fill:url(#linear-gradient-63);}.cls-82{fill:url(#linear-gradient-64);}.cls-83{fill:url(#linear-gradient-65);}.cls-84{fill:url(#linear-gradient-66);}.cls-85{fill:url(#linear-gradient-67);}.cls-86{fill:url(#linear-gradient-68);}.cls-87{fill:url(#linear-gradient-69);}.cls-88{fill:url(#linear-gradient-70);}.cls-89{fill:url(#t-15);}.cls-90{fill:url(#t-16);}.cls-91{fill:url(#t-17);}.cls-92{fill:url(#t-18);}.cls-93{fill:url(#t-19);}.cls-94{fill:url(#t-20);}.cls-95{fill:url(#t-21);}.cls-96{fill:url(#t-22);}.cls-98{fill:url(#t-23);}.cls-99{fill:url(#t-24);}.cls-100{fill:url(#t-25);}.cls-101{fill:url(#t-26);}.cls-102,.cls-103,.cls-104{opacity:0.3;}.cls-102{fill:url(#t-27);}.cls-103{fill:url(#t-28);}.cls-104{fill:url(#t-29);}.cls-105{fill:url(#linear-gradient-71);}.cls-106{fill:url(#linear-gradient-72);}.cls-107{fill:url(#linear-gradient-73);}.cls-108{fill:url(#linear-gradient-74);}.cls-109{fill:url(#t-30);}.cls-110{fill:url(#t-31);}.cls-111{fill:url(#t-32);}</style><linearGradient id="linear-gradient" x1="832.75" y1="729.15" x2="803.82" y2="866.57" gradientUnits="userSpaceOnUse"><stop offset="0" stop-color="#f6f6f6"/><stop offset="1" stop-color="#c9d6ff"/></linearGradient><linearGradient id="linear-gradient-2" x1="695.4" y1="758.09" x2="199.97" y2="1405.4" xlink:href="#linear-gradient"/><linearGradient id="linear-gradient-3" x1="968.47" y1="921.37" x2="473.04" y2="1568.69" xlink:href="#linear-gradient"/><linearGradient id="linear-gradient-4" x1="635.07" y1="711.91" x2="139.64" y2="1359.23" xlink:href="#linear-gradient"/><linearGradient id="linear-gradient-5" x1="1325.06" y1="1240.01" x2="829.63" y2="1887.33" xlink:href="#linear-gradient"/><linearGradient id="linear-gradient-6" x1="1146.24" y1="1103.15" x2="650.81" y2="1750.46" xlink:href="#linear-gradient"/><linearGradient id="linear-gradient-7" x1="680.41" y1="746.62" x2="184.98" y2="1393.93" xlink:href="#linear-gradient"/><linearGradient id="linear-gradient-8" x1="1175.15" y1="737.6" x2="1153.45" y2="790.64" xlink:href="#linear-gradient"/><linearGradient id="linear-gradient-9" x1="1380.7" y1="543.94" x2="1118.25" y2="741.51" xlink:href="#linear-gradient"/><linearGradient id="linear-gradient-10" x1="1137.87" y1="621.96" x2="1075.06" y2="475.63" xlink:href="#linear-gradient"/><linearGradient id="linear-gradient-11" x1="977.43" y1="607.64" x2="975.07" y2="602.14" xlink:href="#linear-gradient"/><linearGradient id="linear-gradient-12" x1="1260.76" y1="1045.02" x2="1204.38" y2="913.68" xlink:href="#linear-gradient"/><linearGradient id="linear-gradient-13" x1="1273.7" y1="764.2" x2="1148.38" y2="764.2" gradientUnits="userSpaceOnUse"><stop offset="0" stop-color="#1d4891"/><stop offset="1" stop-color="#182e65"/></linearGradient><linearGradient id="linear-gradient-14" x1="754.49" y1="-52.14" x2="857.7" y2="286.97" xlink:href="#linear-gradient"/><linearGradient id="linear-gradient-15" x1="905.02" y1="89.28" x2="924.92" y2="379" xlink:href="#linear-gradient-13"/><linearGradient id="linear-gradient-16" x1="709.96" y1="357.99" x2="698.16" y2="69" xlink:href="#linear-gradient"/><linearGradient id="linear-gradient-17" x1="691.43" y1="864.26" x2="644.25" y2="-244.5" gradientUnits="userSpaceOnUse"><stop offset="0" stop-color="#009688"/><stop offset="1" stop-color="#39789a"/></linearGradient><linearGradient id="linear-gradient-18" x1="891.57" y1="645.82" x2="449.25" y2="1530.47" xlink:href="#linear-gradient"/><linearGradient id="linear-gradient-19" x1="1291.81" y1="800.77" x2="1291.81" y2="1228.34" xlink:href="#linear-gradient"/><linearGradient id="Cool" x1="657.98" y1="1021.59" x2="669.77" y2="1245.7" xlink:href="#linear-gradient-17"/><linearGradient id="linear-gradient-20" x1="1043.69" y1="-7.53" x2="240.88" y2="965.58" xlink:href="#linear-gradient-13"/><linearGradient id="linear-gradient-21" x1="1434.68" y1="534.17" x2="745.91" y2="755.56" xlink:href="#linear-gradient-17"/><linearGradient id="linear-gradient-22" x1="1225.27" y1="169.54" x2="1470.03" y2="1307.78" xlink:href="#linear-gradient-17"/><linearGradient id="linear-gradient-23" x1="1432.75" y1="313.44" x2="629.93" y2="1286.55" xlink:href="#linear-gradient-13"/><linearGradient id="linear-gradient-24" x1="589.67" y1="941.82" x2="591.76" y2="931.38" gradientUnits="userSpaceOnUse"><stop offset="0" stop-color="#fad6c7"/><stop offset="1" stop-color="#e4857f"/></linearGradient><linearGradient id="linear-gradient-25" x1="596.25" y1="933.57" x2="590.82" y2="884.99" xlink:href="#linear-gradient-24"/><linearGradient id="linear-gradient-26" x1="-10342.73" y1="968.68" x2="-10287.16" y2="1001.71" gradientTransform="matrix(-1, 0, 0, 1, -9695.37, 0)" xlink:href="#linear-gradient-24"/><linearGradient id="linear-gradient-27" x1="-10313.7" y1="1171.76" x2="-10199.63" y2="1095.71" gradientTransform="matrix(-1, 0, 0, 1, -9695.37, 0)" xlink:href="#linear-gradient-24"/><linearGradient id="linear-gradient-28" x1="-10275.61" y1="1248.75" x2="-10273.51" y2="1260.98" gradientTransform="matrix(-1, 0, 0, 1, -9695.37, 0)" xlink:href="#linear-gradient-13"/><linearGradient id="linear-gradient-29" x1="-10343.91" y1="1206.42" x2="-10212.05" y2="1118.52" gradientTransform="matrix(-1, 0, 0, 1, -9695.37, 0)" xlink:href="#linear-gradient-24"/><linearGradient id="linear-gradient-30" x1="-10270.88" y1="950.41" x2="-10265.88" y2="1298" gradientTransform="matrix(-1, 0, 0, 1, -9683.64, 0)" xlink:href="#linear-gradient-13"/><linearGradient id="linear-gradient-31" x1="-10314.64" y1="1279.38" x2="-10312.54" y2="1291.61" gradientTransform="matrix(-1, 0, 0, 1, -9695.37, 0)" xlink:href="#linear-gradient-13"/><linearGradient id="linear-gradient-32" x1="-10323.52" y1="574.25" x2="-10337.32" y2="578.97" gradientTransform="matrix(-1, -0.1, -0.1, 1, -9622.6, -510.03)" xlink:href="#linear-gradient-24"/><linearGradient id="linear-gradient-33" x1="-10324.84" y1="508.11" x2="-10311.59" y2="409.61" gradientTransform="matrix(-1, -0.1, -0.1, 1, -9622.6, -510.03)" xlink:href="#linear-gradient-24"/><linearGradient id="t" x1="638.43" y1="939.32" x2="644.06" y2="1046.42" gradientUnits="userSpaceOnUse"><stop offset="0.02" stop-color="#bec7d3"/><stop offset="1" stop-color="#009688"/></linearGradient><linearGradient id="linear-gradient-34" x1="1222.87" y1="219.77" x2="1219.2" y2="243" xlink:href="#linear-gradient"/><linearGradient id="linear-gradient-35" x1="1120.38" y1="584.6" x2="1120.18" y2="584.6" xlink:href="#linear-gradient-13"/><linearGradient id="t-2" x1="114.42" y1="787.36" x2="114.42" y2="443.28" gradientTransform="translate(152.83)" xlink:href="#t"/><linearGradient id="t-3" x1="114.42" y1="600.07" x2="114.42" y2="570.83" gradientTransform="translate(152.83)" xlink:href="#t"/><linearGradient id="t-4" x1="189.39" y1="734.14" x2="189.39" y2="306.27" gradientTransform="translate(152.83)" xlink:href="#t"/><linearGradient id="t-5" x1="189.39" y1="499.68" x2="189.39" y2="470.45" gradientTransform="translate(152.83)" xlink:href="#t"/><linearGradient id="t-6" x1="-38.22" y1="862.75" x2="-38.22" y2="434.88" gradientTransform="translate(152.83)" xlink:href="#t"/><linearGradient id="t-7" x1="-38.22" y1="628.3" x2="-38.22" y2="599.06" gradientTransform="translate(152.83)" xlink:href="#t"/><linearGradient id="t-8" x1="-116.19" y1="933.82" x2="-116.19" y2="694.47" gradientTransform="translate(152.83)" xlink:href="#t"/><linearGradient id="t-9" x1="-116.19" y1="805.47" x2="-116.19" y2="776.23" gradientTransform="translate(152.83)" xlink:href="#t"/><linearGradient id="t-10" x1="39.44" y1="804.75" x2="39.44" y2="251.21" gradientTransform="translate(152.83)" xlink:href="#t"/><linearGradient id="t-11" x1="39.44" y1="499.57" x2="39.44" y2="470.33" gradientTransform="translate(152.83)" xlink:href="#t"/><linearGradient id="linear-gradient-36" x1="1172.13" y1="246.7" x2="1268.56" y2="263.88" xlink:href="#linear-gradient-24"/><linearGradient id="linear-gradient-37" x1="-10262.96" y1="343.17" x2="-10273.87" y2="495.94" gradientTransform="matrix(-1, 0, 0, 1, -9083.09, 0)" xlink:href="#linear-gradient-24"/><linearGradient id="linear-gradient-38" x1="-10284.29" y1="357.71" x2="-10295.2" y2="510.48" gradientTransform="matrix(-1, 0, 0, 1, -9083.09, 0)" xlink:href="#linear-gradient-24"/><linearGradient id="t-12" x1="1235.53" y1="187.6" x2="1213.69" y2="328.77" xlink:href="#t"/><linearGradient id="linear-gradient-39" x1="1223.69" y1="296.97" x2="1190.34" y2="324.9" xlink:href="#linear-gradient"/><linearGradient id="linear-gradient-40" x1="1189.45" y1="272.82" x2="1177.52" y2="349.93" xlink:href="#linear-gradient"/><linearGradient id="linear-gradient-41" x1="1228.99" y1="307.27" x2="1226.19" y2="308.91" xlink:href="#linear-gradient"/><linearGradient id="linear-gradient-42" x1="1168.28" y1="285.03" x2="1159.84" y2="348.91" xlink:href="#linear-gradient-24"/><linearGradient id="linear-gradient-43" x1="1275.45" y1="426.89" x2="1240.49" y2="501.02" gradientTransform="translate(-42.52 -129.73) rotate(-1.58)" xlink:href="#linear-gradient-24"/><linearGradient id="linear-gradient-44" x1="1228.71" y1="191.88" x2="1231.02" y2="177.69" xlink:href="#linear-gradient-24"/><linearGradient id="linear-gradient-45" x1="-2082.19" y1="-1396.2" x2="-2084.02" y2="-1417.58" gradientTransform="translate(2858.42 2088.18) rotate(15.8)" xlink:href="#linear-gradient-24"/><linearGradient id="linear-gradient-46" x1="7235.26" y1="1224.86" x2="7231.54" y2="1181.47" gradientTransform="translate(-7044.14)" xlink:href="#linear-gradient"/><linearGradient id="linear-gradient-47" x1="-3216.57" y1="860.41" x2="-3216.57" y2="927.4" gradientTransform="matrix(-1, 0, 0, 1, -2939.76, 0)" xlink:href="#linear-gradient"/><linearGradient id="linear-gradient-48" x1="-3103.51" y1="957.31" x2="-3142.68" y2="1043.26" gradientTransform="matrix(-1, 0, 0, 1, -2939.76, 0)" xlink:href="#linear-gradient"/><linearGradient id="linear-gradient-49" x1="-2976.18" y1="1050.95" x2="-2974.91" y2="1125.51" gradientTransform="matrix(-1, 0, 0, 1, -2939.76, 0)" xlink:href="#linear-gradient"/><linearGradient id="linear-gradient-50" x1="-3056.38" y1="953.77" x2="-2924.94" y2="1049.83" gradientTransform="matrix(-1, 0, 0, 1, -2939.76, 0)" xlink:href="#linear-gradient"/><linearGradient id="linear-gradient-51" x1="7165.67" y1="876.36" x2="7293.52" y2="1227.22" gradientTransform="translate(-7044.14)" xlink:href="#linear-gradient-13"/><linearGradient id="t-13" x1="-13887.73" y1="856.99" x2="-13908.46" y2="880.68" gradientTransform="matrix(-1, 0, 0, 1, -13821.55, 0)" xlink:href="#t"/><linearGradient id="t-14" x1="7089.6" y1="801.13" x2="7278.53" y2="1069.6" gradientTransform="translate(-7044.14)" xlink:href="#t"/><linearGradient id="linear-gradient-52" x1="1538" y1="853.4" x2="1538" y2="1589.94" gradientTransform="translate(-38.07 -216.3) rotate(-2.93)" xlink:href="#linear-gradient-13"/><linearGradient id="linear-gradient-53" x1="1393.53" y1="215.09" x2="1588.56" y2="774.38" gradientTransform="translate(172.31 517.86) rotate(6.73)" xlink:href="#linear-gradient-13"/><linearGradient id="linear-gradient-54" x1="1383.69" y1="218.52" x2="1578.71" y2="777.81" gradientTransform="translate(172.31 517.86) rotate(6.73)" xlink:href="#linear-gradient-13"/><linearGradient id="linear-gradient-55" x1="1373.57" y1="222.05" x2="1568.6" y2="781.34" gradientTransform="translate(172.31 517.86) rotate(6.73)" xlink:href="#linear-gradient-13"/><linearGradient id="linear-gradient-56" x1="1363.72" y1="225.48" x2="1558.75" y2="784.77" gradientTransform="translate(172.31 517.86) rotate(6.73)" xlink:href="#linear-gradient-13"/><linearGradient id="linear-gradient-57" x1="1353.62" y1="229.01" x2="1548.64" y2="788.3" gradientTransform="translate(172.31 517.86) rotate(6.73)" xlink:href="#linear-gradient-13"/><linearGradient id="linear-gradient-58" x1="1343.77" y1="232.44" x2="1538.79" y2="791.73" gradientTransform="translate(172.31 517.86) rotate(6.73)" xlink:href="#linear-gradient-13"/><linearGradient id="linear-gradient-59" x1="1333.28" y1="236.1" x2="1528.31" y2="795.39" gradientTransform="translate(172.31 517.86) rotate(6.73)" xlink:href="#linear-gradient-13"/><linearGradient id="linear-gradient-60" x1="1395.11" y1="1833.82" x2="1393.96" y2="1841.12" gradientTransform="translate(-514.84 -1438.43) scale(0.9 1.12)" xlink:href="#linear-gradient"/><linearGradient id="linear-gradient-61" x1="1437.49" y1="822.58" x2="1437.49" y2="1559.12" gradientTransform="translate(-20.51 -165.67) rotate(-2.14)" xlink:href="#linear-gradient-13"/><linearGradient id="linear-gradient-62" x1="736.43" y1="638.04" x2="738.51" y2="671.71" xlink:href="#linear-gradient-24"/><linearGradient id="linear-gradient-63" x1="710.7" y1="2063.48" x2="741.24" y2="2093.56" gradientTransform="matrix(0.97, -0.26, 0.26, 0.97, -512.14, -1176.88)" xlink:href="#linear-gradient"/><linearGradient id="linear-gradient-64" x1="714.19" y1="606.02" x2="703.78" y2="586.23" xlink:href="#linear-gradient-13"/><linearGradient id="linear-gradient-65" x1="675.45" y1="562.48" x2="733.76" y2="730.48" xlink:href="#linear-gradient"/><linearGradient id="linear-gradient-66" x1="695.04" y1="631.62" x2="676.88" y2="670.13" xlink:href="#linear-gradient-24"/><linearGradient id="linear-gradient-67" x1="-10204.78" y1="1232.08" x2="-10202.14" y2="1215.83" gradientTransform="matrix(-0.99, 0.12, 0.12, 0.99, -9598.4, 594.68)" xlink:href="#linear-gradient-24"/><linearGradient id="linear-gradient-68" x1="-10235.26" y1="1809.7" x2="-10249" y2="1898.51" gradientTransform="matrix(-0.98, 0.21, 0.21, 0.98, -9639.79, 1032.75)" xlink:href="#linear-gradient"/><linearGradient id="linear-gradient-69" x1="662.38" y1="625.87" x2="671.4" y2="566.86" xlink:href="#linear-gradient-13"/><linearGradient id="linear-gradient-70" x1="6248.92" y1="-1363.47" x2="6247.29" y2="-1382.44" gradientTransform="translate(-5638.4 -440.22) rotate(21.2)" xlink:href="#linear-gradient-24"/><linearGradient id="t-15" x1="2146.56" y1="130.86" x2="2312.83" y2="198.7" gradientTransform="translate(-833.12)" xlink:href="#t"/><linearGradient id="t-16" x1="1379.43" y1="-11.66" x2="1379.43" y2="0.57" xlink:href="#t"/><linearGradient id="t-17" x1="2158.63" y1="215.73" x2="2160.43" y2="223.66" gradientTransform="translate(-833.12)" xlink:href="#t"/><linearGradient id="t-18" x1="2158.63" y1="220.49" x2="2160.43" y2="228.42" gradientTransform="translate(-833.12)" xlink:href="#t"/><linearGradient id="t-19" x1="2158.63" y1="225.25" x2="2160.43" y2="233.18" gradientTransform="translate(-833.12)" xlink:href="#t"/><linearGradient id="t-20" x1="2158.63" y1="230" x2="2160.43" y2="237.94" gradientTransform="translate(-833.12)" xlink:href="#t"/><linearGradient id="t-21" x1="2162.34" y1="233.92" x2="2163.61" y2="239.52" gradientTransform="translate(-833.12)" xlink:href="#t"/><linearGradient id="t-22" x1="1333.05" y1="175.81" x2="1332.46" y2="180.47" xlink:href="#t"/><linearGradient id="t-23" x1="1382.29" y1="82.5" x2="1382.29" y2="94.15" xlink:href="#t"/><linearGradient id="t-24" x1="1465.71" y1="85.06" x2="1456.39" y2="93.21" xlink:href="#t"/><linearGradient id="t-25" x1="1465.71" y1="85.06" x2="1456.39" y2="93.21" xlink:href="#t"/><linearGradient id="t-26" x1="1447.16" y1="159.78" x2="1471.04" y2="212.2" xlink:href="#t"/><linearGradient id="t-27" x1="258.47" y1="446" x2="258.47" y2="453.26" xlink:href="#t"/><linearGradient id="t-28" x1="374.08" y1="274.51" x2="374.08" y2="288.18" xlink:href="#t"/><linearGradient id="t-29" x1="197.79" y1="69.28" x2="197.79" y2="82.94" xlink:href="#t"/><linearGradient id="linear-gradient-71" x1="459.7" y1="807.68" x2="456.35" y2="817.75" xlink:href="#linear-gradient"/><linearGradient id="linear-gradient-72" x1="425.94" y1="793.48" x2="377.24" y2="921.32" xlink:href="#linear-gradient"/><linearGradient id="linear-gradient-73" x1="388.9" y1="772.81" x2="446.69" y2="772.81" xlink:href="#linear-gradient"/><linearGradient id="linear-gradient-74" x1="400.2" y1="777.76" x2="435.38" y2="777.76" xlink:href="#linear-gradient-13"/><linearGradient id="t-30" x1="384.03" y1="603.04" x2="482.02" y2="814.1" xlink:href="#t"/><linearGradient id="t-31" x1="396.97" y1="698.58" x2="371.91" y2="785.9" xlink:href="#t"/><linearGradient id="t-32" x1="427.77" y1="731.06" x2="400.58" y2="816.47" xlink:href="#t"/></defs><title>dwvops</title><g class="cls-1"><g id="Layer_2" data-name="Layer 2"><g id="Layer_1-2" data-name="Layer 1"><path class="cls-2" d="M739.25,1007.06l28.43-16.41a9.61,9.61,0,0,1,9.62,0l28.43,16.41a9.62,9.62,0,0,1,0,16.66l-28.43,16.41a9.61,9.61,0,0,1-9.62,0l-28.43-16.41A9.62,9.62,0,0,1,739.25,1007.06Z"/><path class="cls-3" d="M240.92,1226l81.13-46.84a13.11,13.11,0,0,1,13.08,0L416.25,1226a13.08,13.08,0,0,1,0,22.65l-81.12,46.84a13.09,13.09,0,0,1-13.08,0l-81.13-46.85A13.08,13.08,0,0,1,240.92,1226Z"/><path class="cls-4" d="M608.45,1166.11,766,1075.18a13.06,13.06,0,0,1,13.08,0l157.49,90.93a13.08,13.08,0,0,1,0,22.65L779,1279.7a13.06,13.06,0,0,1-13.08,0l-157.51-90.94A13.08,13.08,0,0,1,608.45,1166.11Z"/><path class="cls-5" d="M367.54,935.59l81.13-46.84a13.11,13.11,0,0,1,13.08,0l81.12,46.84a13.08,13.08,0,0,1,0,22.65l-81.12,46.85a13.11,13.11,0,0,1-13.08,0l-81.13-46.85A13.08,13.08,0,0,1,367.54,935.59Z"/><path class="cls-6" d="M1272.09,1238.82l38.68-22.33a13.11,13.11,0,0,1,13.08,0l38.67,22.33a13.08,13.08,0,0,1,0,22.66l-38.67,22.33a13.06,13.06,0,0,1-13.08,0l-38.69-22.33A13.09,13.09,0,0,1,1272.09,1238.82Z"/><path class="cls-7" d="M994.73,1230.69l38.68-22.33a13.11,13.11,0,0,1,13.08,0l38.68,22.33a13.08,13.08,0,0,1,0,22.66l-38.68,22.33a13.06,13.06,0,0,1-13.08,0l-38.68-22.33A13.08,13.08,0,0,1,994.73,1230.69Z"/><path class="cls-8" d="M377.57,1071.89l38.68-22.33a13.06,13.06,0,0,1,13.08,0L468,1071.89a13.08,13.08,0,0,1,0,22.65l-38.68,22.34a13.11,13.11,0,0,1-13.08,0l-38.68-22.34A13.08,13.08,0,0,1,377.57,1071.89Z"/><polygon class="cls-9" points="535.26 808.46 1407.66 1312.13 1593.74 1207.71 721.35 704.04 535.26 808.46"/><path class="cls-10" d="M951.77,899.74,807.36,920.3c40.06-5.7,75.2-27.89,102.76-63.95l144.42-20.57C1027,871.85,991.83,894,951.77,899.74Z"/><path class="cls-11" d="M976.67,596.77c-.2,1.44-.37,2.9-.54,4.36,9-78.24,45.28-128,94.41-135l128.82-18.34,15.6-2.22a80.76,80.76,0,0,0-15.53,3.78c-41.54,14.48-71.47,62.32-79.11,133.11h0Z"/><path class="cls-12" d="M975.53,606.69q.29-2.81.6-5.56C975.92,603,975.71,604.81,975.53,606.69Z"/><path class="cls-13" d="M1346.43,966,1202,986.58c-20.24,2.87-42.65-1.5-66.19-14.14A193.67,193.67,0,0,1,1098.66,946l138.91-25.67a198.68,198.68,0,0,0,42.66,31.56C1303.77,964.52,1326.18,968.91,1346.43,966Z"/><path class="cls-14" d="M1237.56,920.31,1098.67,946c-67.43-60.29-118.61-175.92-124.19-286.32-.32-6.86-.51-13.67-.49-20.46a331,331,0,0,1,2.68-42.42l143.66-14.34a336.57,336.57,0,0,0-1.93,36.19c-.19,103.27,41.81,214.53,101.36,283Q1228.45,911.6,1237.56,920.31Z"/><path class="cls-15" d="M1064.5,320.61,920.09,341.16C882,241.75,826.29,153.61,761.81,94.81c-21.5-19.59-43.95-35.93-67.07-48.37C654.09,24.62,615.41,17,580.5,22L724.91,1.47c34.93-5,73.6,2.58,114.23,24.4a294.88,294.88,0,0,1,28.1,17.22q13.8,9.52,27.2,20.81,8.67,7.32,17.17,15.36,4.26,4,8.48,8.23h0C978.69,145.9,1029.15,228.41,1064.5,320.61Z"/><path class="cls-16" d="M1064.5,320.61,920.09,341.16C882,241.75,826.29,153.61,761.81,94.81L894.44,63.9q8.67,7.32,17.17,15.36,4.26,4,8.48,8.23h0C978.69,145.9,1029.15,228.41,1064.5,320.61Z"/><path class="cls-17" d="M904.08,710.85l-90.34,12.87-54.06,7.7c-20.25,2.88-42.65-1.49-66.2-14.13C628.89,682.59,573.09,595,547.12,498c-9.66-36.19-15.2-73.73-15.45-110.31,0-1.21,0-2.44,0-3.63.18-100,39.88-165,96.54-173.08l144.43-20.57c-56.69,8.06-96.38,73.1-96.57,173.08-.21,128.44,64.8,269.24,147.61,324.68h0c4.69,3.16,9.41,6,14.2,8.6C861.43,709.36,883.84,713.73,904.08,710.85Z"/><path class="cls-18" d="M823.66,688.12l-9.92,35.6-54.06,7.7c-20.25,2.88-42.65-1.49-66.2-14.13C628.89,682.59,573.09,595,547.12,498c-9.66-36.19-15.2-73.73-15.45-110.31,0-1.21,0-2.44,0-3.63l144.4-20.57C675.84,491.88,740.85,632.68,823.66,688.12Z"/><path class="cls-19" d="M1137.06,301.62c-32.7-17.57-64.15-25.89-93.39-25.87-48.71,0-91.34,23.22-123.58,65.41C882,241.75,826.29,153.61,761.81,94.81c-21.5-19.59-43.95-35.93-67.07-48.37C540.29-36.51,414.29,86.56,413.85,320.75q0,9.35.26,18.73.13,5.34.37,10.74c.14,3.49.3,7,.51,10.51,12.62,221,130.48,453.06,274.56,533.2l3.61,2c40.62,21.81,79.28,29.36,114.19,24.41,40-5.72,75.18-27.92,102.77-64l2.42,6.2c28.54,72.7,66.47,139.11,110.31,192,34.44,41.63,72.56,74.94,112.65,96.46,149.92,80.53,273-33.1,280.49-254.06.24-6.65.35-13.39.38-20.22C1416.81,642.56,1291.51,384.57,1137.06,301.62Zm-282.25,288c-6.65,72-35.94,121.19-77.07,137.08-24.62,9.51-53.46,7.09-84.26-9.43-88.71-47.65-160.84-195-161.81-329.77,0-1.16,0-2.34,0-3.51.25-135.71,73.25-207,162.74-158.95S856.48,422.62,856.22,558.33C856.2,569.19,855.71,579.65,854.81,589.64Zm281,382.8A192.74,192.74,0,0,1,1098.67,946v0c-67.43-60.27-118.61-175.9-124.19-286.3-.32-6.86-.51-13.67-.49-20.46,0-4.88.12-9.67.31-14.36q.59-14.58,2.37-28.06c9.76-75.74,45.67-123.81,93.87-130.66l0,0c20.24-2.86,42.62,1.51,66.17,14.16,89.48,48.06,162.09,197.56,161.83,333.27S1225.31,1020.51,1135.83,972.44Z"/><path class="cls-20" d="M1560.77,856.21c0,7.39-.14,14.69-.42,21.84a533.23,533.23,0,0,1-7.88,75.31c-1.09,6.21-2.32,12.29-3.65,18.24-23.68,106.25-80.81,172.81-154.67,183.32l-144.41,20.54c92.06-13.1,158.14-113.28,165.86-268.91q.74-14.58.77-29.77c.44-234.22-124.86-492.21-279.31-575.16-32.72-17.57-64.17-25.89-93.39-25.87a145.89,145.89,0,0,0-20.82,1.47l23.8-3.4,120.6-17.17c34.94-5,73.61,2.6,114.24,24.42C1435.94,364,1561.21,622,1560.77,856.21Z"/><path class="cls-21" d="M845.39,816.25l-38,104.06c-34.91,5-73.57-2.6-114.19-24.41l-3.61-2C545.47,813.79,427.61,581.76,415,360.73c-.21-3.54-.37-7-.51-10.51s-.28-7.18-.37-10.74l.79-2,22.33,58.32c15.52,47,29.24,9.09,94.42-11.79h0c-.27,135.7,72.34,285.21,161.82,333.27,30.68,16.46,59.42,18.92,84,9.54l.86.22,68.45,46.44C860.32,789.43,851.63,796.29,845.39,816.25Z"/><path class="cls-22" d="M856.22,558.33c.26-135.71-72.35-285.21-161.83-333.27l-30.63-54.48c-22.07-35.75-17.91-50.85,23.13-59.83l74.92-15.94C826.29,153.61,882,241.75,920.09,341.16h0a444.24,444.24,0,0,0-57.55,168.21Z"/><path class="cls-23" d="M1416.37,876.78c0,6.83-.54,23.12-.77,29.77l-61.32,36.69c-22.46,13.45-29-12.41-34.84-37.94l-20.87-91.79c.26-135.71-72.35-285.21-161.83-333.27-23.55-12.65-45.93-17-66.17-14.16l40.21-72.25c5.82-15.37-.14-19.51-7.08-34.4l-60-83.68c29.24,0,60.69,8.3,93.39,25.87C1291.51,384.57,1416.81,642.56,1416.37,876.78Z"/><path class="cls-24" d="M1560.77,856.21c0,7.39-145.17,50.34-145.17,50.34q.74-14.58.77-29.77c.44-234.22-124.86-492.21-279.31-575.16-32.72-17.57-64.17-25.89-93.39-25.87l3-1.93,120.6-17.17c34.94-5,73.61,2.6,114.24,24.42C1435.94,364,1561.21,622,1560.77,856.21Z"/><path class="cls-25" d="M1098.67,946,1071.3,948a61,61,0,0,0-55.19,72.68l6.74,33.88c-43.84-52.94-81.77-119.35-110.31-192l-2.42-6.2c42.14-81.58,58.6-180.23,64.18-231.52-.19,4.69-.31,9.48-.31,14.36,0,6.79.17,13.6.49,20.46,5.58,110.4,56.76,226,124.19,286.3Z"/><path class="cls-26" d="M599.89,931.34a14.43,14.43,0,0,0-5.25,13.1c1.08,8.54-6.13,6.66-6.13,6.66l-5.13-18.43Z"/><circle class="cls-27" cx="594.64" cy="919.21" r="14.64"/><path class="cls-28" d="M626.64,965.06s-6.13,8.65-6.09,13.89l-22.48,27.27L584.93,979l13.85,45.44,22.44-34.8a1.65,1.65,0,0,1,2.57-.26c2.81,2.88,9.4,7.22,14.22-8.6l-11.24-7.37Z"/><polygon class="cls-29" points="574.02 1011.02 562.23 1245.68 562.68 1254.18 563.51 1270.21 565.99 1270.21 566.61 1260.56 582.73 1268.36 593.59 1267.91 577.75 1254.8 567.87 1246.62 599.14 1023.97 574.02 1011.02"/><path class="cls-30" d="M562.68,1254.18l.83,16H566l.62-9.65,16.12,7.8,10.86-.45-15.84-13.11C575.49,1257.15,571.13,1258.18,562.68,1254.18Z"/><polygon class="cls-31" points="583.3 1041.65 584.37 1055.69 589.33 1120.31 589.84 1127.21 601.26 1276.31 601.71 1284.81 602.54 1300.84 605.02 1300.84 605.64 1291.19 621.76 1298.99 632.62 1298.54 616.78 1285.43 606.9 1277.25 609.13 1128.68 608.42 1054.6 604.72 1052.71 586.72 1043.42 583.3 1041.65"/><path class="cls-32" d="M611.36,989.51c-2,6.71-3.17,16.26.61,34.18,0,0,17,44.86-1.71,218.33,0,0-34.38-24-56-27,0,0-11.48-141.21,6.91-179.11,8.9-18.34,13.82-43.61,7.66-56.22-4.34-8.88.55-24.73,4.63-35a10.94,10.94,0,0,1,14-6.18h0c10,3.76,17.1,14.11,21.64,23.21A38,38,0,0,1,611.36,989.51Z"/><path class="cls-33" d="M601.71,1284.81l.83,16H605l.62-9.65,16.12,7.8,10.86-.45-15.84-13.11C614.52,1287.78,610.16,1288.81,601.71,1284.81Z"/><path class="cls-34" d="M608.15,1083.22l-5.88.93a3.39,3.39,0,0,0-2.85,3h0l7.3.73Z"/><path class="cls-35" d="M608.93,980.88l-2.28,48.19,10.47,58.36-5,7.78a10.69,10.69,0,0,1-15.31,2.84l-4.3-3.16a2.69,2.69,0,0,1,1.31-4.84l9.66-1,4.68-5.79-9.57-41.17a61.73,61.73,0,0,1-3.71-35.32l1.18-44.23a5.47,5.47,0,0,1,10.65-.45C608.51,968.61,609.76,975.62,608.93,980.88Z"/><path class="cls-36" d="M565.92,1024.39c8.1-13.37,4.94-.72,19-9s10-33.56,2.39-46.29.65-19.73,7.67-32.75c.68-1.25,2.6-1.77,3-2.89-1.55.24-5.07-1.4-6.77-3.25-2.19-2.42-2.83-5.45-1.4-6.74s4.37-.41,6.58,2a9.2,9.2,0,0,1,1.58,2.36,15.6,15.6,0,0,0-.24-6.16,13.66,13.66,0,0,1-.41-3.29,11.26,11.26,0,0,1,.11-1.63l-2.12-2.67,2.36,1.38a11,11,0,0,1,1.25-3.21l-1.54-2.58,2.38,1.3,0,0c1.24-1.65,2.45-1.5,2.34-3.43.8.93,1.25,1.48,1.25,1.48l1.79-1.31c-1.65-10.31-11.73-10.15-25.17-5.37C567.91,906.65,558.45,927,555.26,962S565.92,1024.39,565.92,1024.39Z"/><polygon class="cls-37" points="660.13 953.3 646.5 1015.39 620.55 997.87 630.13 946.27 660.13 953.3"/><path class="cls-38" d="M1227.86,305.1s38.7-14.94,26.23,15.14S1215,363.41,1215,363.41s-45.75,232.74-57.76-32.7Z"/><path class="cls-39" d="M1120.32,582.44c-.15,1.42-.3,2.87-.43,4.33.13-1.44.26-2.89.42-4.33Z"/><g class="cls-40"><path class="cls-41" d="M284.71,821h0V593.7h-35V821h0c-.08,2.65,1.62,5.31,5.1,7.32,6.8,3.93,17.94,3.93,24.74,0C283.09,826.28,284.79,823.62,284.71,821Z"/><ellipse class="cls-42" cx="267.24" cy="593.7" rx="17.5" ry="10.1"/></g><g class="cls-40"><path class="cls-43" d="M359.69,778.43h0V493.32h-35V778.43h0c-.08,2.65,1.62,5.31,5.1,7.32,6.8,3.93,17.94,3.93,24.74,0C358.07,783.74,359.77,781.08,359.69,778.43Z"/><ellipse class="cls-44" cx="342.22" cy="493.32" rx="17.5" ry="10.1"/></g><g class="cls-40"><path class="cls-45" d="M132.07,907h0V621.93h-35V907h0c-.07,2.65,1.62,5.31,5.1,7.32,6.8,3.93,17.94,3.93,24.74,0C130.45,912.35,132.15,909.69,132.07,907Z"/><ellipse class="cls-46" cx="114.6" cy="621.93" rx="17.5" ry="10.1"/></g><g class="cls-40"><path class="cls-47" d="M54.1,954.07h0v-155H19.16v155h0c-.08,2.65,1.62,5.31,5.1,7.32,6.8,3.93,17.94,3.93,24.74,0C52.48,959.38,54.18,956.72,54.1,954.07Z"/><ellipse class="cls-48" cx="36.63" cy="799.1" rx="17.5" ry="10.1"/></g><g class="cls-40"><path class="cls-49" d="M209.73,865.08h0V493.2h-35V865.08h0c-.07,2.64,1.62,5.31,5.1,7.31,6.81,3.93,17.94,3.93,24.75,0C208.11,870.38,209.81,867.72,209.73,865.08Z"/><ellipse class="cls-50" cx="192.26" cy="493.2" rx="17.5" ry="10.1"/></g><path class="cls-51" d="M1203.27,201.64l-2.9,27a73,73,0,0,1-17.53,40.13l-18.56,21.33,1.67,8.74,16.25-10A73,73,0,0,0,1217,229.07l.93-27.43Z"/><polygon class="cls-52" points="1135.16 451.26 1157.2 435.39 1158.64 427.97 1174.75 344.55 1195.67 329.01 1227.86 305.1 1227.86 280.92 1207.04 275.55 1161.7 329.5 1151.94 424.19 1151.38 429.66 1135.16 451.26"/><polygon class="cls-36" points="1227.86 305.1 1174.74 344.56 1162.82 406.29 1146.63 406.29 1157.2 330.71 1207.04 275.55 1227.86 280.92 1227.86 305.1"/><path class="cls-53" d="M1156.5,465.8l22-15.86,1.88-9.71,15.67-81.13,45.13-33.52c5-3.69,8-10.15,8-17.1v-13l-20.82-5.38-.51.61L1195.67,329l-12.64,15-9.51,92.31-.81,7.83Z"/><path class="cls-36" d="M1241.21,325.57l-45.13,33.53-11.92,61.74H1168l10.58-75.59,22.16-24.53c6.64-7.35,9.6-18.24,7.84-28.8l-.85-5.06,20.68,3.24,20.82,5.37v13C1249.19,315.42,1246.18,321.88,1241.21,325.57Z"/><polygon class="cls-36" points="1172.71 444.19 1156.5 465.8 1178.53 449.94 1180.41 440.23 1173.52 436.36 1172.71 444.19"/><polygon class="cls-36" points="1157.2 435.39 1158.64 427.97 1151.94 424.19 1151.38 429.66 1135.16 451.26 1157.2 435.39"/><path class="cls-54" d="M1210.48,189.87h0a12.22,12.22,0,0,0-7.21,11.77l3.77,73.91s-17.77,29.27,42.15,19.92l6.21-79.38a19.06,19.06,0,0,0-5.42-14.85l-.87-.88A40.06,40.06,0,0,0,1210.48,189.87Z"/><polygon class="cls-55" points="1209.04 336.79 1232.28 320.66 1190.38 293.98 1168.63 312.92 1209.04 336.79"/><polygon class="cls-56" points="1160.42 269.83 1168.63 312.92 1209.04 336.79 1203.67 294.59 1160.42 269.83"/><path class="cls-57" d="M1208.42,331.89l8.52-5.94a6.14,6.14,0,0,0-.23-10.24l-11.26-7.13Z"/><path class="cls-58" d="M1164.28,290.09l7.71,21-3.36,1.8s-8.21-.59-9-16.42C1159.53,293.94,1162.57,293.48,1164.28,290.09Z"/><path class="cls-59" d="M1208.66,322.2s3.11-12.6,10.32-8.13S1250.9,262,1250.9,262l-7.71-23.59a53.67,53.67,0,0,1-1.47-27.77h0a6.6,6.6,0,0,1,12.77-.55l15.37,50.53S1247.09,314.7,1221,324C1216.7,325.47,1213,323.33,1208.66,322.2Z"/><path class="cls-60" d="M1226.75,178.75l-3.13,8.66s-5,16.63-1.37,17.23,2.75-8.27,8-11.65,7.5-16.76,7.5-16.76Z"/><circle class="cls-61" cx="1236.28" cy="170.74" r="17.8"/><path class="cls-36" d="M1278.93,146.65c-4,14.19-13.94,25.86-26.44,31.46a23.92,23.92,0,0,0,1.26-4l-12.38-3.22s-3.42,4.1-6,3.07-4.44,3.76-4.44,3.76-.69-12.92-4.82-4.74a8.16,8.16,0,0,0,.11,7.75,8.2,8.2,0,0,1-7,1.1c-25.47-7.2-39.64-35.83-32.44-61.27a47.89,47.89,0,1,1,92.17,26.08Z"/><path class="cls-62" d="M10.48,1093.48s18.05,106,89.07,97.44l225.61-132.33c27.45-14.93,23.34-41.45-3.24-57.89l-27.73-17.15Z"/><polygon class="cls-63" points="240.7 895.46 240.7 867.66 312.91 909.35 288.64 923.37 240.7 895.46"/><path class="cls-64" d="M312.91,961.39v-52l-240.7,139v83.38l213.55-123.29A54.29,54.29,0,0,0,312.91,961.39Z"/><path class="cls-65" d="M26.29,1105.19l45.92,26.51v-83.38L0,1006.63v53A52.57,52.57,0,0,0,26.29,1105.19Z"/><polygon class="cls-66" points="0 1006.63 240.7 867.66 240.7 895.46 24.07 1020.53 0 1006.63"/><polygon class="cls-67" points="288.64 923.37 240.7 895.46 24.07 1020.53 72.21 1048.32 288.64 923.37"/><path class="cls-68" d="M240.7,935.08s-19.37-54.27-59.85-37.44,10.56,58.59-44.57,30.31-42.18,90.49-42.18,90.49Z"/><path class="cls-69" d="M258.47,925s-2.1-71.37-34.68-67.77,12.1,114.76-33.37,67.27-32.65,54.32-78.06,41.84-75.24-84-78.06-6.9S72,1031,72,1031Z"/><path class="cls-70" d="M1599.69,1291.82a8.48,8.48,0,0,1-8.85-7.54l-77.68-716.57a8.47,8.47,0,0,1,16.84-1.83l77.68,716.57a8.46,8.46,0,0,1-7.5,9.33Z"/><path class="cls-71" d="M1431.51,696.72a8.47,8.47,0,0,1-2.36-16.19L1525.58,639a8.47,8.47,0,1,1,6.69,15.56l-96.43,41.49A8.38,8.38,0,0,1,1431.51,696.72Z"/><path class="cls-72" d="M1441.21,788.64a8.47,8.47,0,0,1-2.37-16.19L1535.28,731a8.47,8.47,0,0,1,6.69,15.56L1445.54,788A8.41,8.41,0,0,1,1441.21,788.64Z"/><path class="cls-73" d="M1450.83,881.58a8.47,8.47,0,0,1-2.36-16.19l96.43-41.49a8.47,8.47,0,0,1,6.7,15.56L1455.17,881A8.43,8.43,0,0,1,1450.83,881.58Z"/><path class="cls-74" d="M1460.53,973.52a8.47,8.47,0,0,1-2.36-16.19l96.43-41.49a8.47,8.47,0,1,1,6.69,15.56l-96.43,41.49A8.4,8.4,0,0,1,1460.53,973.52Z"/><path class="cls-75" d="M1470.17,1066.46a8.47,8.47,0,0,1-2.36-16.19l96.42-41.49a8.47,8.47,0,0,1,6.69,15.56l-96.42,41.49A8.49,8.49,0,0,1,1470.17,1066.46Z"/><path class="cls-76" d="M1479.85,1158.38a8.48,8.48,0,0,1-2.36-16.2l96.43-41.48a8.47,8.47,0,0,1,6.7,15.56l-96.44,41.48A8.39,8.39,0,0,1,1479.85,1158.38Z"/><path class="cls-77" d="M1489.41,1252.81a8.48,8.48,0,0,1-2.37-16.2l96.44-41.48a8.47,8.47,0,0,1,6.69,15.56l-96.43,41.49A8.52,8.52,0,0,1,1489.41,1252.81Z"/><ellipse class="cls-78" cx="732.03" cy="678.33" rx="61.96" ry="26.86" transform="translate(-133.32 181.16) rotate(-12.94)"/><path class="cls-79" d="M1494.52,1338a8.47,8.47,0,0,1-8.74-7.67l-67.71-717.58a8.47,8.47,0,1,1,16.86-1.59l67.72,717.58A8.47,8.47,0,0,1,1495,1338Z"/><path class="cls-80" d="M778.65,629.82c-4.23,3.06-7.23,6.91-12.41,7.11C734.3,638.14,694,622.27,694,622.27l-2.58-31L690,573.44l-1-11.8a7.44,7.44,0,0,1,1.95-5.78,7.88,7.88,0,0,1,5.72-2.47,7.36,7.36,0,0,1,6.23,3.41,61.49,61.49,0,0,1,8.36,18.61.23.23,0,0,1,0,.08,63.19,63.19,0,0,1,1.79,10.71c0,.3,0,.63.07.94l1.57,24.75s43.62,21.47,49.45,13.62S778.65,629.82,778.65,629.82Z"/><path class="cls-36" d="M681.26,695.73l8.54-54.12,37.65-14.67,58.89,14.67-12.12,11.58-22.68,3.89a57.41,57.41,0,0,0-40.07,28h0l-13.9,17.09Z"/><path class="cls-36" d="M711.47,697.56l3.08,26.16,9.68-26.16s63.76-28.81,67.54-35.91c3.18-5.95,2.81-38.48-31.44-8.46S711.47,697.56,711.47,697.56Z"/><path class="cls-36" d="M681.26,695.73l-1,12.44c-.71,9.05,12,13.44,21.74,7.49l73.8-37,24.85,7.24-25.87-17.13Z"/><polygon class="cls-81" points="742.86 629.99 699.63 667.92 739.09 679.16 778.64 642.32 742.86 629.99"/><path class="cls-82" d="M717.52,585.15l-4.47,1.05-21.6,5L690,573.44l1-17.58a7.88,7.88,0,0,1,5.72-2.47,7.36,7.36,0,0,1,6.23,3.41,61.49,61.49,0,0,1,8.36,18.61.23.23,0,0,1,0,.08Z"/><path class="cls-83" d="M691.06,553.39h.17a18.81,18.81,0,0,1,18.46,15.7l7.83,45.43s40.27,7-24.87,47.13l-36-59.25a22,22,0,0,1-1.46-18.15l.49-1.33A46.14,46.14,0,0,1,691.06,553.39Z"/><path class="cls-84" d="M742.42,661.56c-4.22,3.08-7.22,6.93-12.41,7.13-31.93,1.2-72.2-14.66-72.2-14.66l-2.61-31.3-2.45-29.33a7.56,7.56,0,0,1,7.68-8.25,7.36,7.36,0,0,1,6.22,3.39,61.51,61.51,0,0,1,10.24,30.36l.4,6.43h0l1.14,18.3s43.64,21.49,49.46,13.63S742.42,661.56,742.42,661.56Z"/><path class="cls-85" d="M683.35,546.35l-.39,12s13.43,15.8,9.34,17-12.44-7.54-19-10.66-1.05-19.91-1.05-19.91Z"/><polygon class="cls-86" points="777.22 591.81 778.64 642.32 739.09 679.16 734.69 630.36 777.22 591.81"/><path class="cls-87" d="M677.29,625.33l-22.09-2.6-4.66-.55,2.21-28.78a7.56,7.56,0,0,1,7.68-8.25,7.36,7.36,0,0,1,6.22,3.39,61.51,61.51,0,0,1,10.24,30.36Z"/><circle class="cls-88" cx="682.43" cy="542.59" r="15.79"/><path class="cls-36" d="M698.21,542s65.28-6.11,65.2-33.59-97.58,23-97.58,23l1,13.7s3-10,6.1-6.19-.77,10.86-.77,10.86l6.39-8.64Z"/><polygon class="cls-89" points="1300.2 272.15 1458.66 180.66 1458.66 43.43 1300.2 134.92 1300.2 272.15"/><polygon class="cls-90" points="1458.66 20.56 1458.66 43.43 1300.2 134.92 1300.2 112.04 1458.66 20.56"/><g class="cls-40"><path class="cls-91" d="M1316.83,226a.73.73,0,0,0,.4-.11l19.16-11.06a.79.79,0,0,0,.29-1.08.8.8,0,0,0-1.09-.29l-19.16,11.06a.79.79,0,0,0,.4,1.48Z"/></g><g class="cls-40"><path class="cls-92" d="M1316.83,230.78a.83.83,0,0,0,.4-.11l19.16-11.06a.79.79,0,0,0,.29-1.08.8.8,0,0,0-1.09-.29l-19.16,11.06a.79.79,0,0,0-.29,1.08A.8.8,0,0,0,1316.83,230.78Z"/></g><g class="cls-40"><path class="cls-93" d="M1316.83,235.54a.83.83,0,0,0,.4-.11l19.16-11.06a.79.79,0,0,0,.29-1.08.8.8,0,0,0-1.09-.29l-19.16,11.06a.79.79,0,0,0-.29,1.08A.82.82,0,0,0,1316.83,235.54Z"/></g><g class="cls-40"><path class="cls-94" d="M1316.83,240.29a.82.82,0,0,0,.4-.1l19.16-11.06a.8.8,0,0,0-.8-1.38l-19.16,11.06a.8.8,0,0,0-.29,1.09A.81.81,0,0,0,1316.83,240.29Z"/></g><g class="cls-40"><path class="cls-95" d="M1323.71,241a.78.78,0,0,0,.39-.1l12.29-7.05a.79.79,0,0,0,.29-1.08.8.8,0,0,0-1.09-.29l-12.28,7a.8.8,0,0,0-.29,1.09A.78.78,0,0,0,1323.71,241Z"/></g><path class="cls-96" d="M1336.78,201.8c0-.9-.64-1.27-1.42-.82l-13,7.51a3.16,3.16,0,0,0-1.42,2.46v5.87c0,.9.64,1.27,1.42.82l13-7.51a3.16,3.16,0,0,0,1.42-2.46Z"/><g class="cls-97"><path class="cls-98" d="M1391.44,190.22a16.48,16.48,0,0,0,6.27-1.34c11.56-4.73,14.86-22.18,18-39,2.58-13.63,5.25-27.72,12.18-30.52a5.06,5.06,0,0,1,5,.35c8.74,5.67,11.63,35.77,12,46.89a1.95,1.95,0,0,0,3.89-.14c-.15-4.29-1.78-42.22-13.79-50a9,9,0,0,0-8.61-.7c-8.9,3.61-11.64,18.08-14.54,33.41-3,15.84-6.09,32.23-15.7,36.16-8.54,3.49-12.74-2.34-17.61-9.08s-11-15.17-22.32-8.4c-2.59,1.55-4.86,2-6.92,1.47-4.63-1.27-8.16-7.75-11.57-14-3.73-6.86-7.26-13.33-12.81-14.77-2.65-.69-5.48-.11-8.4,1.74a1.95,1.95,0,1,0,2.08,3.29c2-1.27,3.75-1.69,5.34-1.27,3.92,1,7.2,7,10.37,12.87,3.8,7,7.73,14.2,14,15.91,3.09.84,6.43.21,9.94-1.88,7.91-4.72,11.5-.51,17.16,7.34C1379.34,183.83,1384,190.22,1391.44,190.22Z"/></g><path class="cls-99" d="M1444.1,108.73c0-10.15-7.19-14.31-16-9.23s-16,17.53-16,27.69,7.2,14.31,16,9.23S1444.1,118.88,1444.1,108.73Z"/><path class="cls-100" d="M1437.06,112.79c0-5.68-4-8-9-5.16s-8.94,9.81-8.94,15.49,4,8,8.94,5.17S1437.06,118.48,1437.06,112.79Z"/><path class="cls-101" d="M1432.48,115.44c0-2.78-2-3.91-4.37-2.53a9.7,9.7,0,0,0-4.37,7.57c0,2.77,2,3.91,4.37,2.52A9.66,9.66,0,0,0,1432.48,115.44Z"/><path class="cls-102" d="M258.47,457.33l1.33,17.89c.58,7.72,3.31,13.77,6.8,15l8.08,2.94-8.08,2.95c-3.49,1.27-6.22,7.32-6.8,15l-1.33,17.89-1.33-17.89c-.57-7.71-3.31-13.76-6.79-15l-8.09-2.95,8.09-2.94c3.48-1.27,6.22-7.32,6.79-15Z"/><path class="cls-103" d="M374.08,295.86l2.51,33.69c1.08,14.53,6.23,25.92,12.8,28.32l15.22,5.55L389.39,369c-6.57,2.39-11.72,13.78-12.8,28.31L374.08,431l-2.5-33.7c-1.09-14.53-6.23-25.92-12.8-28.31l-15.22-5.55,15.22-5.55c6.57-2.4,11.71-13.79,12.8-28.32Z"/><path class="cls-104" d="M197.79,90.62l2.51,33.7c1.08,14.53,6.23,25.92,12.79,28.31l15.23,5.55-15.23,5.55c-6.56,2.4-11.71,13.78-12.79,28.32l-2.51,33.69-2.5-33.69c-1.09-14.54-6.23-25.92-12.8-28.32l-15.22-5.55,15.22-5.55c6.57-2.39,11.71-13.78,12.8-28.31Z"/><ellipse class="cls-105" cx="435.38" cy="880.65" rx="35.44" ry="19.86"/><path class="cls-106" d="M388.9,772.81l1.34,2.37a71.27,71.27,0,0,1,8,48.64l-6,31.34a25.93,25.93,0,0,0,12.56,27.38l.09.05a25.91,25.91,0,0,0,25.85,0h0a25.92,25.92,0,0,0,12.5-27.34l-6-31.17a71.23,71.23,0,0,1,8.19-49l1.29-2.24Z"/><path class="cls-107" d="M446.69,772.81c0,2.73-4.44,5.14-11.32,6.68a89.68,89.68,0,0,1-35.16,0c-6.88-1.54-11.31-4-11.31-6.68,0-4.65,12.93-8.43,28.89-8.43S446.69,768.16,446.69,772.81Z"/><path class="cls-108" d="M435.38,779.42a.17.17,0,0,1,0,.07,89.68,89.68,0,0,1-35.16,0,.17.17,0,0,1,0-.07c0-2.84,7.87-5.13,17.59-5.13S435.38,776.58,435.38,779.42Z"/><path class="cls-109" d="M428.23,701c.44-14.93.69-30.68.57-46l-12.36-1.43,12.28-5.7c-.18-11.18-.58-22-1.28-32l-11-8.61,9.81-4.84c-2.42-21.9-6.79-37.17-14.22-38.34-6.65-1.05-10,10.19-11.21,28l10.8,3.14-11.13,3.09c-.21,5.31-.27,11.08-.2,17.18l11.33,2.29-11.25,2.52c.3,14.21,1.22,30,2.47,45.89l8.78.81-8.07,7.83c.39,4.62.38,4.66.81,9.23l10.19,4.57L405.12,692c4.44,45.87,10.33,86.46,10.33,86.46l8.82.11s1.93-23,3.26-60.75l-9.74,1.72Z"/><path class="cls-110" d="M419.36,778.58H407.27s-3.39-9.91-8.06-24.9l10-2.51-12-3.93c-5.2-17-11.48-38.93-16.39-60.08l14.39-4.54-16.36-4.31c-7.1-33-9.89-62.3,1.36-65.57,7.95-2.31,14.6,11.06,20,31.1l-11.37,9.6,13.92.64c3.23,14,5.19,24.92,7.44,40.85l-8.62,8,10.14,2.72c.92,6.85,1.16,8.7,1.9,15.16l-8.09,5.83,9.15,2.81C417.86,757,419.36,778.58,419.36,778.58Z"/><path class="cls-111" d="M432.15,753.71c2.55-8.52,5.34-18.42,7.8-28.35l-8.38-7.09,9.48,2.53a228.13,228.13,0,0,0,5.23-29l-8.85-3.52h9.13c.55-9.34-.67-15.89-4.78-17.09-5.66-1.64-10.31,9-14,24.16l3.79,10.39-5.68-1.9c-6.44,31.63-9.45,74.74-9.45,74.74h7.83s3.27-9.55,7.31-23l-4.78-5.09Z"/></g></g></g></svg>